<svg xmlns="http://www.w3.org/2000/svg" width="72.846" height="72.83" viewBox="0 0 72.846 72.83"><path d="M36.426,19.98A18.673,18.673,0,1,0,55.1,38.653,18.643,18.643,0,0,0,36.426,19.98Zm0,30.812a12.14,12.14,0,1,1,12.14-12.14A12.162,12.162,0,0,1,36.426,50.792ZM60.218,19.216a4.355,4.355,0,1,1-4.355-4.355A4.345,4.345,0,0,1,60.218,19.216Zm12.367,4.42c-.276-5.834-1.609-11-5.883-15.26-4.258-4.258-9.426-5.59-15.26-5.883-6.013-.341-24.036-.341-30.049,0C15.576,2.77,10.408,4.1,6.134,8.36S.543,17.786.251,23.62c-.341,6.013-.341,24.036,0,30.049.276,5.834,1.609,11,5.883,15.26s9.426,5.59,15.26,5.883c6.013.341,24.036.341,30.049,0,5.834-.276,11-1.609,15.26-5.883,4.258-4.258,5.59-9.426,5.883-15.26.341-6.013.341-24.019,0-30.032ZM64.817,60.121a12.29,12.29,0,0,1-6.923,6.923c-4.794,1.9-16.17,1.463-21.468,1.463s-16.69.423-21.468-1.463a12.29,12.29,0,0,1-6.923-6.923c-1.9-4.794-1.463-16.17-1.463-21.468S6.15,21.963,8.035,17.185a12.29,12.29,0,0,1,6.923-6.923C19.752,8.36,31.128,8.8,36.426,8.8s16.69-.423,21.468,1.463a12.29,12.29,0,0,1,6.923,6.923c1.9,4.794,1.463,16.17,1.463,21.468S66.718,55.343,64.817,60.121Z" transform="translate(0.005 -2.238)" fill="#ed723e"/></svg>