<svg xmlns="http://www.w3.org/2000/svg" width="76.985" height="76.985" viewBox="0 0 76.985 76.985"><path d="M76.985,39.055A38.5,38.5,0,0,1,27.1,75.825c1.568-2.561,3.911-6.752,4.781-10.089.466-1.8,2.39-9.158,2.39-9.158C35.528,58.969,39.191,61,43.087,61,54.7,61,63.063,50.324,63.063,37.053c0-12.712-10.384-22.226-23.732-22.226-16.608,0-25.439,11.144-25.439,23.3,0,5.65,3.011,12.681,7.807,14.916.729.341,1.118.186,1.288-.512.124-.528.776-3.151,1.071-4.361a1.152,1.152,0,0,0-.264-1.1,15.159,15.159,0,0,1-2.84-8.785c0-8.49,6.426-16.7,17.384-16.7,9.452,0,16.08,6.441,16.08,15.661,0,10.415-5.262,17.632-12.107,17.632a5.583,5.583,0,0,1-5.7-6.954C37.7,43.339,39.8,38.4,39.8,35.1c0-2.949-1.583-5.417-4.874-5.417-3.865,0-6.969,3.989-6.969,9.344A13.87,13.87,0,0,0,29.1,44.736s-3.8,16.111-4.5,19.122c-.776,3.322-.466,8.009-.14,11.051A38.5,38.5,0,1,1,76.985,39.055Z" transform="translate(0 -0.563)" fill="#ed723e"/></svg>