<svg xmlns="http://www.w3.org/2000/svg" width="79.468" height="64.543" viewBox="0 0 79.468 64.543"><path d="M71.3,19.466c.05.706.05,1.412.05,2.118,0,21.531-16.388,46.34-46.34,46.34A46.026,46.026,0,0,1,0,60.612a33.7,33.7,0,0,0,3.933.2,32.618,32.618,0,0,0,20.22-6.958A16.316,16.316,0,0,1,8.925,42.56,20.538,20.538,0,0,0,12,42.812a17.226,17.226,0,0,0,4.286-.555A16.289,16.289,0,0,1,3.227,26.273v-.2a16.4,16.4,0,0,0,7.362,2.067A16.311,16.311,0,0,1,5.547,6.356,46.3,46.3,0,0,0,39.129,23.4a18.386,18.386,0,0,1-.4-3.731A16.3,16.3,0,0,1,66.913,8.524,32.066,32.066,0,0,0,77.25,4.591a16.243,16.243,0,0,1-7.16,8.975,32.651,32.651,0,0,0,9.379-2.521A35.011,35.011,0,0,1,71.3,19.466Z" transform="translate(0 -3.381)" fill="#ed723e"/></svg>