<svg xmlns="http://www.w3.org/2000/svg" width="68.584" height="82.171" viewBox="0 0 68.584 82.171"><path d="M2.681,58.15q0-4.288.477-12.874A10.387,10.387,0,0,1,6.178,38.4a10.306,10.306,0,0,1,6.914-2.9q7.946-.4,23.92-.4t23.923.4a10.123,10.123,0,0,1,9.934,9.775q.391,7.152.4,12.874t-.4,12.876A10.118,10.118,0,0,1,60.934,80.8q-7.949.395-23.923.4t-23.92-.4A10.305,10.305,0,0,1,6.18,77.9a10.381,10.381,0,0,1-3.02-6.877Q2.68,62.445,2.681,58.15Zm5.324-11.2h4.848V72.857h4.689V46.948h4.848V42.577H8.005ZM13.171-.972h4.768l3.02,12.079h.318L24.137-.972h4.768L25.25,10.789q-1.829,5.8-1.828,5.96V29.306H18.734v-12a13.216,13.216,0,0,0-.437-2.026c-.184-.608-.425-1.311-.715-2.106s-.517-1.458-.675-1.987Zm9.218,70.33q0,3.815,2.861,3.815,2.544,0,4.848-2.781v2.464h4.135V50.524H30.1V67.53Q28.429,69.2,27.634,69.2c-.74,0-1.113-.5-1.113-1.51V50.526H22.389Zm6.278-45.695v-11.6a5.153,5.153,0,0,1,1.748-4.172,6.673,6.673,0,0,1,4.45-1.47,5.823,5.823,0,0,1,4.249,1.589,5.612,5.612,0,0,1,1.629,4.212V23.743a6.151,6.151,0,0,1-1.589,4.49,5.936,5.936,0,0,1-4.45,1.629,5.8,5.8,0,0,1-4.411-1.709A6.249,6.249,0,0,1,28.667,23.663Zm4.291.556q0,1.825,1.748,1.828,1.825,0,1.828-1.987V11.9a1.5,1.5,0,0,0-.559-1.192,1.892,1.892,0,0,0-1.272-.477,1.851,1.851,0,0,0-1.232.437,1.432,1.432,0,0,0-.517,1.152v12.4Zm5.324,48.635h4.212V71.183a4.893,4.893,0,0,0,3.976,1.989q3.733,0,3.735-4.927v-12.4q0-5.64-4.055-5.64a4.689,4.689,0,0,0-3.656,2.143V42.577H38.283V72.854Zm4.212-4.212V54.656a2.524,2.524,0,0,1,1.748-.877q1.747,0,1.748,2.225V67.766q0,1.907-1.51,1.907A2.555,2.555,0,0,1,42.495,68.643Zm1.828-42.834V6.975h4.132V24.061q0,1.509,1.113,1.51,1.032,0,2.464-1.669V6.975h4.132V29.306H52.031V26.842q-2.306,2.783-4.85,2.781Q44.324,29.623,44.323,25.809Zm9.059,40.767a7.867,7.867,0,0,0,1.51,4.967,5.379,5.379,0,0,0,4.53,1.947q6.2,0,6.2-6.914V64.908H61.331c0,.107.01.464.04,1.073a6.319,6.319,0,0,1-.04,1.311c-.052.263-.122.623-.2,1.075a1.4,1.4,0,0,1-.519.951,1.906,1.906,0,0,1-1.11.278q-1.829,0-1.828-3.179V62.208H65.62V56.484a7.174,7.174,0,0,0-1.47-4.768,5.535,5.535,0,0,0-4.49-1.746A5.954,5.954,0,0,0,55.091,51.8a6.6,6.6,0,0,0-1.709,4.689Zm4.291-7.867V56.325q0-2.462,1.828-2.464t1.828,2.464v2.384Z" transform="translate(-2.681 0.972)" fill="#ed723e"/></svg>